<svg version="1.1"
  xmlns="http://www.w3.org/2000/svg"
  xmlns:xlink="http://www.w3.org/1999/xlink" viewBox="0 0 172 172">
  <g transform="translate(6.45,6.45) scale(0.925,0.925)">
    <g fill="none" fill-rule="nonzero" stroke="none" stroke-width="none" stroke-linecap="butt" stroke-linejoin="none" stroke-miterlimit="10" stroke-dasharray="" stroke-dashoffset="0" font-family="none" font-weight="none" font-size="none" text-anchor="none" style="mix-blend-mode: normal">
      <g fill="#006522" stroke="#31ffd3" stroke-width="14" stroke-linejoin="round">
        <path d="M28.75021,3.86459c0.01075,0.00269 0.02108,0.00552 0.03149,0.00787c8.38097,3.05468 17.94714,24.17254 24.4388,44.12723c0.965,2.94364 0.4105,6.17408 -1.48088,8.62743c-0.06651,0.08566 -0.13818,0.17477 -0.20537,0.26245c-0.55529,-9.3565 -3.25315,-18.46028 -7.88535,-26.60861c-3.97985,-6.9314 -7.94046,-10.56241 -8.10843,-10.71391c-0.33708,-0.30533 -0.7937,-0.44267 -1.24328,-0.37396c-0.44958,0.06872 -0.84433,0.33619 -1.07482,0.72826c-6.14295,10.44463 -8.01515,23.76743 -5.41634,38.52718c1.10294,6.2901 2.90922,12.43634 5.38484,18.32303c-1.13704,1.14465 -2.31512,2.3217 -3.5339,3.53062c-8.87345,-17.98072 -9.01691,-37.72016 -7.51595,-51.31052c0.94161,-8.64096 2.7689,-17.16226 5.45308,-25.42955c0.39403,0.06422 0.78111,0.16549 1.1561,0.30247zM149.84912,28.91097c1.51239,13.61286 1.38013,33.38497 -7.50676,51.39122c-1.26066,-1.25125 -2.4609,-2.44917 -3.60017,-3.59427c2.47075,-5.87683 4.27223,-12.01306 5.37041,-18.29284c2.59041,-14.73825 0.71282,-28.04907 -5.42946,-38.49437c-0.23006,-0.39123 -0.62372,-0.6584 -1.07226,-0.72771c-0.44854,-0.06931 -0.90448,0.06657 -1.2419,0.37012c-0.16662,0.14983 -4.13151,3.75426 -8.11237,10.65945c-4.63636,8.12809 -7.33501,17.21623 -7.886,26.55743c-2.29244,-2.93307 -2.81004,-4.12064 -2.91452,-4.56206c2.56271,-8.42776 5.59728,-16.70476 9.08934,-24.79179c6.44765,-14.64721 12.74008,-23.03229 17.86111,-23.86206c2.67703,8.24039 4.50079,16.73389 5.44258,25.34688zM65.44942,41.63788c0.36576,0.9221 1.1029,1.64756 2.03072,1.99857c0.91758,0.34412 1.93764,0.28601 2.8102,-0.16009c4.90939,-2.5192 17.64827,-7.63909 29.86497,-0.78932c1.02025,0.57257 2.23829,0.6759 3.34041,0.28337c1.10213,-0.39253 1.98062,-1.24255 2.40923,-2.33115c4.39608,-11.12054 10.92427,-20.22284 19.40367,-27.05412c2.77203,-2.23529 5.7462,-4.2076 8.88397,-5.89137c-3.4017,4.29597 -6.87618,10.47574 -10.42391,18.53824c-3.57913,8.29055 -6.68327,16.77818 -9.29733,25.42168c-0.04035,0.13745 -0.0609,0.27995 -0.06102,0.4232c0,1.34812 0.00039,4.92828 27.27852,31.8268c5.23287,5.16527 9.08744,11.55991 11.21126,18.59926c-2.22737,-1.46612 -4.79582,-2.33176 -7.45624,-2.51297c-5.18956,-0.3178 -10.43582,2.09072 -15.59616,7.15901c-10.50376,10.31597 -19.2488,12.63303 -22.81948,13.1534c0.04401,-0.18678 0.09159,-0.37173 0.145,-0.55246c1.42404,-4.80592 -0.84034,-9.77132 -3.01687,-13.23148c6.63644,0.01882 11.70604,-1.65155 15.07651,-4.99379c2.60725,-2.60725 4.08867,-6.1326 4.12639,-9.81961c-0.02567,-0.67805 -0.49999,-1.25593 -1.16003,-1.4133c-6.58303,-1.56715 -11.82213,-0.81307 -15.57254,2.24396c-3.40876,2.77753 -4.80391,6.84221 -5.375,9.88916c-0.03427,-0.04838 -0.06448,-0.09112 -0.08464,-0.1227c-1.82246,-2.8548 -2.2408,-7.18104 -1.63376,-8.70485c0.20959,-0.50364 0.13158,-1.08113 -0.20412,-1.51111c-0.3357,-0.42998 -0.87702,-0.64575 -1.41646,-0.5646c-0.53944,0.08115 -0.99331,0.44663 -1.18765,0.95635c-0.98463,2.47048 -0.44924,7.78162 1.89359,11.4514c0.15218,0.23818 0.38642,0.54704 0.70993,0.97435c1.78786,2.35963 6.53353,8.6268 4.94589,13.98668c-0.64152,2.3158 -0.77912,4.74223 -0.40352,7.11571c0.4116,2.82294 1.38933,5.53362 2.8745,7.96933c1.85277,3.0763 3.18097,6.43936 3.9302,9.95149c-3.08744,0.54142 -6.11149,1.39686 -9.02504,2.55299c-1.09253,0.46474 -1.8362,1.49819 -1.9298,2.68176c-0.0936,1.18357 0.47839,2.32107 1.48429,2.95175c-1.48183,0.56675 -2.32235,2.13595 -1.97302,3.68352c0.34932,1.54757 1.78241,2.60357 3.36401,2.47883c0.26841,-0.02184 0.55888,-0.04217 0.85887,-0.06233c-3.34024,2.27127 -7.42619,3.17059 -11.41138,2.51166c-1.59606,-0.341 -3.16647,-0.79263 -4.69984,-1.35162l0.26901,-3.34559l6.57112,-4.94261c1.18904,-0.88675 1.95581,-2.22799 2.11667,-3.70253c0.16476,-1.48064 -0.28437,-2.96412 -1.24271,-4.10474c-2.08514,-2.37826 -5.06436,-3.78369 -8.22577,-3.88048c-3.16142,-0.09679 -6.22103,1.12377 -8.44775,3.37001c-1.00783,1.06244 -1.53925,2.48966 -1.4717,3.95252c0.06487,1.4938 0.72733,2.89886 1.83847,3.89937l5.83954,5.23524l-0.27689,3.46501c-1.40847,0.59643 -2.86707,1.06675 -4.35866,1.40542c-3.99408,0.66043 -8.08902,-0.24433 -11.43303,-2.52609c0.38162,0.02486 0.74738,0.05021 1.0813,0.07742c1.58112,0.12346 3.01302,-0.93285 3.36175,-2.47997c0.34873,-1.54712 -0.49153,-3.11559 -1.97273,-3.68238c1.00626,-0.63059 1.57853,-1.76829 1.48492,-2.95212c-0.09361,-1.18382 -0.83757,-2.21745 -1.93043,-2.68206c-2.97444,-1.17917 -6.06318,-2.04662 -9.21663,-2.58843c0.75179,-3.50064 2.07852,-6.8525 3.92627,-9.91934c1.48517,-2.43571 2.4629,-5.14639 2.8745,-7.96933c0.37578,-2.37347 0.23818,-4.79993 -0.40352,-7.11571c-1.58764,-5.35955 3.15904,-11.62739 4.94589,-13.98668c0.32384,-0.42698 0.55775,-0.73583 0.70993,-0.97435c2.34316,-3.67012 2.87822,-8.98026 1.89359,-11.45075c-0.19434,-0.50972 -0.64821,-0.8752 -1.18765,-0.95635c-0.53944,-0.08115 -1.08076,0.13462 -1.41646,0.5646c-0.3357,0.42998 -0.41371,1.00747 -0.20412,1.51111c0.60704,1.52348 0.1887,5.84938 -1.63376,8.70485c-0.02016,0.03158 -0.05105,0.07432 -0.08464,0.1227c-0.57109,-3.04695 -1.96792,-7.10936 -5.375,-9.88588c-3.75108,-3.0567 -8.98751,-3.81111 -15.57189,-2.24396c-0.6603,0.15712 -1.13494,0.73506 -1.16069,1.4133c0.03772,3.68701 1.51914,7.21236 4.12639,9.81961c3.36979,3.34157 8.4398,5.01662 15.07323,4.99445c-2.17419,3.45915 -4.43762,8.42298 -3.01425,13.22688c0.05509,0.18678 0.10391,0.37767 0.1496,0.57083c-3.5512,-0.4982 -12.24508,-2.77962 -22.82341,-13.16849c-5.16034,-5.06829 -10.40632,-7.47614 -15.59354,-7.15901c-2.66102,0.1808 -5.23015,1.04622 -7.45821,2.51232c2.12427,-7.03911 5.97903,-13.43348 11.21191,-18.5986c11.44573,-11.28683 19.68204,-20.07946 23.8181,-25.42758c2.50369,-3.24423 3.23926,-7.51738 1.96445,-11.41203c-1.97666,-6.07577 -6.05279,-17.76666 -11.14762,-27.80145c-2.53185,-4.99136 -5.00418,-8.98272 -7.41621,-11.97368c16.65813,8.8758 25.39003,27.97655 27.91628,34.34895zM141.14821,57.8134c-1.00078,5.66731 -2.58025,11.21701 -4.71362,16.56198c-6.17218,-6.27363 -10.3444,-10.80847 -13.16258,-14.0805c0.17872,-20.23889 10.10164,-33.04943 13.77344,-37.09747c6.2602,11.95198 5.72803,25.31557 4.10277,34.616zM48.63155,60.40051c-3.20887,3.7195 -7.6372,8.4526 -13.12977,14.03589c-2.83296,-7.04763 -11.11813,-31.24684 -0.64629,-51.23244c3.67482,4.07727 13.59667,16.95867 13.77606,37.19655zM59.46881,80.71358c-0.81953,0.09161 -1.41444,0.82311 -1.33711,1.64411c0.07732,0.821 0.79834,1.42856 1.62056,1.36555c0.27984,-0.02419 6.88808,-0.54956 10.53938,4.82779c0.30179,0.45084 0.82202,0.7054 1.36319,0.66703c0.54117,-0.03836 1.02028,-0.36376 1.25546,-0.85267c0.23517,-0.4889 0.19034,-1.06634 -0.11748,-1.51308c-3.79645,-5.59109 -9.98739,-6.17175 -12.36408,-6.17482c-0.54847,-0.00071 -0.89403,0.02979 -0.95991,0.03609zM99.2072,86.85231c-0.30782,0.44674 -0.35265,1.02418 -0.11748,1.51308c0.23517,0.4889 0.71429,0.8143 1.25546,0.85267c0.54117,0.03836 1.0614,-0.21619 1.36319,-0.66703c3.64996,-5.37534 10.25484,-4.85399 10.53938,-4.82779c0.82222,0.06301 1.54324,-0.54456 1.62056,-1.36555c0.07732,-0.821 -0.51759,-1.55249 -1.33711,-1.64411c-0.06588,-0.00636 -0.41145,-0.03675 -0.95991,-0.03609c-2.37668,0.0029 -8.56762,0.58346 -12.36408,6.17482zM63.45282,94.86888c2.88805,2.34552 3.98897,6.03725 4.40721,8.63136c-5.79526,0.02452 -10.13744,-1.34777 -12.92572,-4.08768c-1.74052,-1.74235 -2.85924,-4.00908 -3.18353,-6.45039c1.56631,-0.30392 3.02709,-0.45022 4.37965,-0.4396c2.97564,0.02335 5.42669,0.80698 7.32239,2.34631zM120.24922,92.96217c-0.32395,2.44142 -1.44273,4.70825 -3.18353,6.45039c-2.78895,2.73991 -7.12139,4.10044 -12.92572,4.08768c0.41824,-2.59445 1.51815,-6.28618 4.40721,-8.63136c1.89593,-1.5391 4.34693,-2.32288 7.32239,-2.34631c1.35248,-0.01065 2.81345,0.13579 4.37965,0.4396zM145.22014,103.00355c4.71152,0.27345 7.91772,3.39727 8.76193,4.31404c0.42605,2.66291 0.49577,5.37069 0.20734,8.052c-0.6454,5.57186 -4.69741,10.14985 -10.14964,11.46715c-8.79115,2.1023 -20.5414,5.74849 -26.58827,11.18698c-1.35416,1.21744 -2.55022,3.12072 -3.78848,5.39468c-0.81672,-3.88131 -2.2785,-7.5982 -4.32454,-10.99605c-1.27654,-2.08799 -2.11812,-4.41233 -2.47426,-6.83357c-0.10191,-0.72466 -0.15714,-1.45513 -0.16535,-2.18687c3.65164,-0.36684 13.42643,-2.4688 25.26487,-14.0956c4.2284,-4.1525 8.41148,-6.27376 12.45068,-6.32113c0.26928,-0.00316 0.53775,0.00308 0.80572,0.01837zM40.03758,109.30698c11.83642,11.62646 21.61092,13.72875 25.26289,14.09559c-0.00832,0.73065 -0.06355,1.46002 -0.16535,2.18359c-0.35596,2.42139 -1.19732,4.74594 -2.4736,6.83423c-2.04687,3.39828 -3.50912,7.11588 -4.32585,10.99802c-1.23793,-2.27363 -2.43334,-4.17627 -3.78717,-5.39337c-6.04755,-5.44017 -17.79712,-9.08571 -26.58827,-11.18632c-5.45147,-1.31801 -9.50254,-5.89584 -10.14767,-11.46715c-0.28863,-2.68107 -0.21913,-5.38862 0.20668,-8.05135c0.84421,-0.91711 4.05041,-4.04124 8.76193,-4.3147c0.26793,-0.01531 0.53648,-0.02084 0.80573,-0.01771c4.03872,0.04695 8.22228,2.16667 12.45068,6.31917zM92.74631,145.22604c0.42757,0.50251 0.62698,1.16016 0.55049,1.81551c-0.0708,0.6477 -0.40756,1.23685 -0.92973,1.62654l-6.1243,4.60536l-5.47211,-4.90521c-0.50814,-0.45241 -0.80998,-1.09234 -0.83591,-1.7722c-0.03157,-0.64776 0.2023,-1.28039 0.6476,-1.75186c1.6603,-1.6453 3.93214,-2.52269 6.26733,-2.42046c2.26347,0.0989 4.39052,1.10977 5.89662,2.80232zM69.88878,148.02508c0.6614,0.28147 1.03314,0.98975 0.88908,1.69397c-0.14406,0.70422 -0.76407,1.20961 -1.48287,1.20875c-0.20345,-0.00009 -0.40477,-0.04138 -0.59183,-0.12138c-0.1888,-0.07861 -16.15709,-6.69631 -31.08078,-0.01115c-0.76206,0.34135 -1.65656,0.0003 -1.99791,-0.76177c-0.34135,-0.76206 -0.0003,-1.65656 0.76177,-1.99791c5.55775,-2.49041 11.17047,-3.30497 16.17224,-3.28983c9.54885,0.02891 16.87087,3.0829 17.33031,3.27933zM135.81192,148.03558c0.65205,0.29098 1.01159,0.99851 0.86222,1.69674c-0.14937,0.69823 -0.76692,1.19674 -1.48094,1.19547c-0.21264,-0.00008 -0.42286,-0.04525 -0.61676,-0.13254c-14.93746,-6.69221 -30.92186,-0.05603 -31.08144,0.01115c-0.7655,0.31562 -1.64245,-0.04331 -1.96699,-0.80507c-0.32454,-0.76175 0.02411,-1.64284 0.78202,-1.97626c0.45922,-0.19621 7.78019,-3.25035 17.329,-3.27933c5.00175,-0.01518 10.6148,0.79942 16.17289,3.28983zM66.21315,151.70202c-1.01856,-0.03695 -2.19764,-0.06701 -3.48798,-0.07742c-0.19753,-0.33829 -0.39378,-0.67697 -0.58527,-1.01962c1.67364,0.37121 3.06543,0.77253 4.07324,1.09704zM109.27351,151.62657c-1.20971,0.01176 -2.31975,0.04018 -3.28523,0.07545c0.96212,-0.3094 2.27176,-0.68781 3.84294,-1.0439c-0.18241,0.32552 -0.36958,0.64696 -0.55771,0.96845zM69.98392,153.58774c0.82719,0.0737 1.44007,0.80083 1.37267,1.62856c-0.0674,0.82773 -0.78985,1.44613 -1.61807,1.38503c-6.31025,-0.5123 -23.87558,-0.8295 -29.31776,3.79636c-0.27291,0.23247 -0.61979,0.35996 -0.97829,0.35956c-0.63381,0.00034 -1.20054,-0.39474 -1.41947,-0.98955c-0.21893,-0.5948 -0.04357,-1.26302 0.43922,-1.67368c3.21425,-2.73319 9.53737,-4.31512 18.79413,-4.70312c0.41066,-0.01642 0.8214,-0.03063 1.23221,-0.04265c3.83338,-0.11186 7.66996,-0.03193 11.49536,0.23949zM133.73659,158.09468c0.63614,0.54084 0.7134,1.49496 0.17256,2.1311c-0.54084,0.63614 -1.49496,0.7134 -2.1311,0.17256c-5.44185,-4.62687 -23.00785,-4.30933 -29.31776,-3.79636c-0.83176,0.06627 -1.56036,-0.55288 -1.62917,-1.38443c-0.06761,-0.83195 0.55184,-1.56126 1.38377,-1.62917c4.23541,-0.30065 8.48423,-0.36636 12.72691,-0.19684c9.25709,0.38868 15.58054,1.97061 18.79479,4.70313zM91.53772,163.70654c1.01814,0.17317 2.04906,0.26031 3.08183,0.26048c0.58655,-0.00067 1.17088,-0.0291 1.75317,-0.08464c-2.8594,3.09096 -6.94222,4.75484 -11.14761,4.54303c-3.71883,-0.15146 -7.22027,-1.79304 -9.71529,-4.55484c1.65066,0.16894 3.31659,0.11377 4.95245,-0.16403c1.8133,-0.39598 3.58313,-0.96981 5.2838,-1.71315c1.87939,0.73159 3.81669,1.30463 5.79164,1.71315z"></path>
      </g>
      <path d="M0,172v-172h172v172z" fill="none" stroke="none" stroke-width="1" stroke-linejoin="miter"></path>
      <path d="" fill="none" stroke="none" stroke-width="1" stroke-linejoin="miter"></path>
      <path d="" fill="none" stroke="none" stroke-width="1" stroke-linejoin="miter"></path>
      <path d="" fill="none" stroke="none" stroke-width="1" stroke-linejoin="miter"></path>
      <path d="" fill="none" stroke="none" stroke-width="1" stroke-linejoin="miter"></path>
      <g fill="#006522" stroke="none" stroke-width="1" stroke-linejoin="miter">
        <path d="M27.59412,3.56212c-2.68418,8.26729 -4.51147,16.78859 -5.45308,25.42955c-1.50097,13.59035 -1.35751,33.3298 7.51595,51.31052c1.21878,-1.20892 2.39687,-2.38597 3.5339,-3.53062c-2.47562,-5.88669 -4.2819,-12.03293 -5.38484,-18.32303c-2.59881,-14.75975 -0.72662,-28.08254 5.41634,-38.52718c0.23048,-0.39208 0.62523,-0.65955 1.07482,-0.72826c0.44958,-0.06872 0.90621,0.06863 1.24328,0.37396c0.16797,0.15151 4.12858,3.78251 8.10843,10.71391c4.63219,8.14833 7.33006,17.25211 7.88535,26.60861c0.06719,-0.08768 0.13885,-0.17679 0.20537,-0.26245c1.89138,-2.45334 2.44588,-5.68379 1.48088,-8.62743c-6.49166,-19.95469 -16.05783,-41.07255 -24.4388,-44.12723c-0.01041,-0.00235 -0.02074,-0.00519 -0.03149,-0.00787c-0.37499,-0.13699 -0.76207,-0.23826 -1.1561,-0.30247zM144.40654,3.56409c-5.12103,0.82977 -11.41347,9.21485 -17.86111,23.86206c-3.49206,8.08704 -6.52663,16.36403 -9.08934,24.79179c0.10448,0.44142 0.62208,1.62899 2.91452,4.56206c0.55099,-9.3412 3.24964,-18.42935 7.886,-26.55743c3.98086,-6.9052 7.94574,-10.50963 8.11237,-10.65945c0.33742,-0.30355 0.79336,-0.43943 1.2419,-0.37012c0.44854,0.06931 0.8422,0.33648 1.07226,0.72771c6.14228,10.4453 8.01987,23.75612 5.42946,38.49437c-1.09818,6.27978 -2.89966,12.41602 -5.37041,18.29285c1.13927,1.1451 2.33951,2.34302 3.60017,3.59427c8.88689,-18.00625 9.01915,-37.77836 7.50676,-51.39122c-0.94179,-8.61298 -2.76555,-17.10649 -5.44258,-25.34688zM37.53314,7.28893c2.41203,2.99096 4.88437,6.98232 7.41621,11.97368c5.09483,10.03479 9.17096,21.72569 11.14762,27.80145c1.27481,3.89465 0.53924,8.16781 -1.96445,11.41203c-4.13606,5.34812 -12.37237,14.14075 -23.8181,25.42758c-5.23288,5.16512 -9.08765,11.5595 -11.21191,18.5986c2.22806,-1.4661 4.79719,-2.33152 7.45821,-2.51232c5.18721,-0.31712 10.4332,2.09072 15.59354,7.15901c10.57834,10.38887 19.27221,12.67029 22.82341,13.16849c-0.04569,-0.19316 -0.09451,-0.38405 -0.1496,-0.57083c-1.42337,-4.80391 0.84007,-9.76774 3.01425,-13.22688c-6.63342,0.02217 -11.70344,-1.65288 -15.07323,-4.99445c-2.60725,-2.60725 -4.08867,-6.13259 -4.12639,-9.81961c0.02575,-0.67825 0.50039,-1.25618 1.16069,-1.4133c6.58437,-1.56715 11.82081,-0.81274 15.57189,2.24396c3.40708,2.77652 4.80391,6.83893 5.375,9.88588c0.03359,-0.04838 0.06448,-0.09112 0.08464,-0.1227c1.82246,-2.85547 2.2408,-7.18137 1.63376,-8.70485c-0.20959,-0.50364 -0.13158,-1.08113 0.20412,-1.51111c0.3357,-0.42998 0.87702,-0.64575 1.41646,-0.5646c0.53944,0.08115 0.99331,0.44663 1.18765,0.95635c0.98463,2.47048 0.44958,7.78063 -1.89359,11.45075c-0.15218,0.23852 -0.38609,0.54737 -0.70993,0.97435c-1.78685,2.35929 -6.53353,8.62713 -4.94589,13.98668c0.6417,2.31577 0.7793,4.74223 0.40352,7.11571c-0.4116,2.82294 -1.38933,5.53362 -2.8745,7.96933c-1.84775,3.06684 -3.17448,6.4187 -3.92627,9.91934c3.15345,0.5418 6.24219,1.40925 9.21663,2.58843c1.09286,0.4646 1.83682,1.49823 1.93043,2.68206c0.09361,1.18382 -0.47866,2.32153 -1.48492,2.95212c1.48119,0.56679 2.32145,2.13526 1.97273,3.68238c-0.34873,1.54712 -1.78063,2.60343 -3.36175,2.47997c-0.33392,-0.02721 -0.69967,-0.05256 -1.0813,-0.07742c3.34401,2.28176 7.43895,3.18652 11.43303,2.52609c1.49158,-0.33867 2.95019,-0.80899 4.35866,-1.40542l0.27689,-3.46501l-5.83954,-5.23524c-1.11114,-1.00051 -1.7736,-2.40557 -1.83847,-3.89937c-0.06755,-1.46285 0.46387,-2.89008 1.4717,-3.95252c2.22672,-2.24625 5.28633,-3.4668 8.44775,-3.37001c3.16142,0.09679 6.14063,1.50222 8.22577,3.88048c0.95834,1.14062 1.40746,2.6241 1.24271,4.10474c-0.16086,1.47454 -0.92763,2.81578 -2.11667,3.70253l-6.57112,4.94261l-0.26901,3.34559c1.53337,0.55899 3.10378,1.01062 4.69984,1.35162c3.98519,0.65893 8.07113,-0.24039 11.41138,-2.51166c-0.29999,0.02016 -0.59046,0.04049 -0.85887,0.06233c-1.5816,0.12474 -3.01469,-0.93126 -3.36401,-2.47883c-0.34932,-1.54757 0.49119,-3.11678 1.97302,-3.68352c-1.0059,-0.63069 -1.57789,-1.76819 -1.48429,-2.95175c0.0936,-1.18357 0.83728,-2.21702 1.9298,-2.68176c2.91355,-1.15614 5.9376,-2.01158 9.02504,-2.55299c-0.74924,-3.51213 -2.07743,-6.87519 -3.9302,-9.95149c-1.48517,-2.43571 -2.4629,-5.14639 -2.8745,-7.96933c-0.3756,-2.37348 -0.238,-4.7999 0.40352,-7.11571c1.58764,-5.35988 -3.15803,-11.62706 -4.94589,-13.98668c-0.32351,-0.42731 -0.55775,-0.73617 -0.70993,-0.97435c-2.34283,-3.66978 -2.87822,-8.98092 -1.89359,-11.4514c0.19434,-0.50972 0.64821,-0.8752 1.18765,-0.95635c0.53944,-0.08115 1.08076,0.13462 1.41646,0.5646c0.3357,0.42998 0.41371,1.00747 0.20412,1.51111c-0.60704,1.52381 -0.1887,5.85005 1.63376,8.70485c0.02016,0.03158 0.05037,0.07432 0.08464,0.1227c0.57109,-3.04695 1.96624,-7.11163 5.375,-9.88916c3.75041,-3.05703 8.98951,-3.81111 15.57254,-2.24396c0.66004,0.15737 1.13436,0.73525 1.16003,1.4133c-0.03772,3.68702 -1.51914,7.21236 -4.12639,9.81961c-3.37046,3.34224 -8.44006,5.0126 -15.07651,4.99379c2.17654,3.46016 4.44091,8.42555 3.01687,13.23148c-0.05341,0.18073 -0.101,0.36568 -0.145,0.55246c3.57068,-0.52037 12.31572,-2.83743 22.81948,-13.1534c5.16034,-5.06829 10.4066,-7.47681 15.59616,-7.15901c2.66042,0.18121 5.22887,1.04685 7.45624,2.51297c-2.12382,-7.03934 -5.97838,-13.43399 -11.21126,-18.59926c-27.27813,-26.89852 -27.27852,-30.47868 -27.27852,-31.8268c0.00012,-0.14325 0.02067,-0.28575 0.06102,-0.4232c2.61406,-8.6435 5.7182,-17.13113 9.29733,-25.42168c3.54773,-8.0625 7.0222,-14.24227 10.42391,-18.53824c-3.13777,1.68377 -6.11194,3.65608 -8.88397,5.89137c-8.4794,6.83129 -15.00759,15.93358 -19.40367,27.05412c-0.42862,1.0886 -1.30711,1.93862 -2.40923,2.33115c-1.10213,0.39253 -2.32016,0.2892 -3.34041,-0.28337c-12.2167,-6.84977 -24.95558,-1.72987 -29.86497,0.78932c-0.87256,0.4461 -1.89262,0.50422 -2.8102,0.16009c-0.92782,-0.351 -1.66495,-1.07647 -2.03072,-1.99857c-2.52625,-6.3724 -11.25814,-25.47315 -27.91628,-34.34895zM137.04544,23.1974c-3.6718,4.04805 -13.59472,16.85858 -13.77344,37.09747c2.81818,3.27203 6.9904,7.80687 13.16258,14.0805c2.13337,-5.34497 3.71284,-10.89467 4.71362,-16.56198c1.62527,-9.30043 2.15743,-22.66401 -4.10277,-34.616zM34.85548,23.20396c-10.47184,19.9856 -2.18667,44.1848 0.64629,51.23244c5.49258,-5.58328 9.9209,-10.31639 13.12977,-14.03589c-0.17939,-20.23788 -10.10124,-33.11928 -13.77606,-37.19655zM60.42873,80.67749c2.37668,0.00307 8.56762,0.58373 12.36408,6.17482c0.30782,0.44674 0.35265,1.02418 0.11748,1.51308c-0.23517,0.4889 -0.71429,0.8143 -1.25546,0.85267c-0.54117,0.03836 -1.0614,-0.21619 -1.36319,-0.66703c-3.6513,-5.37735 -10.25954,-4.85198 -10.53938,-4.82779c-0.82222,0.06301 -1.54324,-0.54456 -1.62056,-1.36555c-0.07732,-0.821 0.51759,-1.55249 1.33711,-1.64411c0.06588,-0.0063 0.41145,-0.0368 0.95991,-0.03609zM111.57127,80.67749c0.54846,-0.00067 0.89403,0.02972 0.95991,0.03609c0.81953,0.09161 1.41444,0.82311 1.33711,1.64411c-0.07732,0.821 -0.79834,1.42856 -1.62056,1.36555c-0.28454,-0.0262 -6.88942,-0.54755 -10.53938,4.82779c-0.30179,0.45084 -0.82202,0.7054 -1.36319,0.66703c-0.54117,-0.03836 -1.02028,-0.36376 -1.25546,-0.85267c-0.23517,-0.4889 -0.19034,-1.06634 0.11748,-1.51308c3.79645,-5.59136 9.98739,-6.17192 12.36408,-6.17482zM56.13043,92.52257c-1.35257,-0.01062 -2.81335,0.13569 -4.37965,0.4396c0.32429,2.44131 1.44302,4.70805 3.18353,6.45039c2.78828,2.73991 7.13046,4.1122 12.92572,4.08768c-0.41824,-2.59411 -1.51916,-6.28585 -4.40721,-8.63136c-1.8957,-1.53933 -4.34675,-2.32296 -7.32239,-2.34631zM115.86957,92.52257c-2.97545,0.02343 -5.42646,0.80721 -7.32239,2.34631c-2.88906,2.34518 -3.98897,6.03692 -4.40721,8.63136c5.80433,0.01277 10.13677,-1.34777 12.92572,-4.08768c1.7408,-1.74214 2.85958,-4.00898 3.18353,-6.45039c-1.5662,-0.30382 -3.02718,-0.45026 -4.37965,-0.4396zM144.41441,102.98518c-4.0392,0.04737 -8.22228,2.16863 -12.45068,6.32113c-11.83844,11.6268 -21.61322,13.72875 -25.26486,14.0956c0.0082,0.73175 0.06343,1.46221 0.16535,2.18687c0.35614,2.42124 1.19773,4.74558 2.47426,6.83357c2.04604,3.39785 3.50782,7.11473 4.32454,10.99605c1.23827,-2.27396 2.43432,-4.17725 3.78848,-5.39468c6.04688,-5.43849 17.79712,-9.08468 26.58827,-11.18698c5.45224,-1.3173 9.50424,-5.89529 10.14964,-11.46715c0.28843,-2.68131 0.21871,-5.38909 -0.20734,-8.052c-0.84421,-0.91677 -4.05041,-4.04059 -8.76193,-4.31404c-0.26797,-0.01529 -0.53645,-0.02153 -0.80572,-0.01837zM27.5869,102.98781c-0.26925,-0.00313 -0.53779,0.00241 -0.80573,0.01771c-4.71152,0.27345 -7.91772,3.39759 -8.76193,4.3147c-0.42581,2.66273 -0.49531,5.37028 -0.20668,8.05135c0.64513,5.57131 4.69621,10.14914 10.14767,11.46715c8.79115,2.10062 20.54072,5.74615 26.58827,11.18632c1.35383,1.2171 2.54924,3.11975 3.78717,5.39337c0.81673,-3.88213 2.27898,-7.59973 4.32585,-10.99802c1.27629,-2.08829 2.11764,-4.41284 2.4736,-6.83423c0.1018,-0.72358 0.15703,-1.45294 0.16535,-2.18359c-3.65198,-0.36684 -13.42647,-2.46913 -25.26289,-14.09559c-4.2284,-4.1525 -8.41196,-6.27222 -12.45068,-6.31917zM86.84969,142.42372c-2.3352,-0.10223 -4.60703,0.77516 -6.26733,2.42046c-0.4453,0.47147 -0.67917,1.10411 -0.6476,1.75186c0.02592,0.67986 0.32777,1.31979 0.83591,1.7722l5.47211,4.90521l6.1243,-4.60536c0.52218,-0.38969 0.85894,-0.97884 0.92973,-1.62654c0.07649,-0.65535 -0.12292,-1.313 -0.55049,-1.81551c-1.5061,-1.69255 -3.63315,-2.70342 -5.89662,-2.80232zM52.55847,144.74576c-5.00177,-0.01514 -10.61449,0.79942 -16.17224,3.28983c-0.76206,0.34135 -1.10312,1.23585 -0.76177,1.99791c0.34135,0.76206 1.23585,1.10312 1.99791,0.76177c14.92369,-6.68516 30.89198,-0.06746 31.08078,0.01115c0.18706,0.08 0.38838,0.1213 0.59183,0.12138c0.7188,0.00087 1.33881,-0.50453 1.48287,-1.20875c0.14406,-0.70422 -0.22768,-1.41249 -0.88908,-1.69397c-0.45944,-0.19643 -7.78146,-3.25042 -17.33031,-3.27933zM119.63902,144.74576c-9.54881,0.02898 -16.86978,3.08312 -17.329,3.27933c-0.75791,0.33342 -1.10656,1.21451 -0.78202,1.97626c0.32454,0.76175 1.20149,1.12068 1.96699,0.80507c0.15957,-0.06719 16.14398,-6.70336 31.08144,-0.01115c0.19391,0.08728 0.40412,0.13246 0.61676,0.13254c0.71403,0.00126 1.33157,-0.49724 1.48094,-1.19547c0.14937,-0.69823 -0.21017,-1.40576 -0.86222,-1.69674c-5.5581,-2.49041 -11.17114,-3.305 -16.17289,-3.28983zM62.13991,150.60498c0.19148,0.34266 0.38774,0.68134 0.58527,1.01962c1.29034,0.01041 2.46941,0.04047 3.48798,0.07742c-1.00781,-0.32452 -2.3996,-0.72583 -4.07324,-1.09704zM109.83122,150.65813c-1.57118,0.35609 -2.88082,0.7345 -3.84294,1.0439c0.96548,-0.03527 2.07552,-0.06369 3.28523,-0.07545c0.18812,-0.32149 0.37529,-0.64292 0.55771,-0.96845zM58.48856,153.34825c-0.41081,0.01201 -0.82155,0.02623 -1.23221,0.04265c-9.25676,0.38801 -15.57988,1.96994 -18.79413,4.70313c-0.48279,0.41065 -0.65815,1.07887 -0.43922,1.67368c0.21893,0.5948 0.78566,0.98988 1.41947,0.98955c0.3585,0.00041 0.70538,-0.12709 0.97829,-0.35956c5.44219,-4.62586 23.00751,-4.30866 29.31776,-3.79636c0.82822,0.0611 1.55066,-0.5573 1.61807,-1.38503c0.0674,-0.82773 -0.54548,-1.55486 -1.37267,-1.62856c-3.8254,-0.27141 -7.66198,-0.35134 -11.49536,-0.23949zM114.9418,153.39156c-4.24268,-0.16952 -8.4915,-0.10381 -12.72691,0.19684c-0.83193,0.0679 -1.45139,0.79721 -1.38377,1.62917c0.06881,0.83155 0.79741,1.4507 1.62917,1.38443c6.30991,-0.51298 23.87591,-0.83051 29.31776,3.79636c0.63614,0.54084 1.59027,0.46358 2.1311,-0.17256c0.54084,-0.63614 0.46358,-1.59027 -0.17256,-2.1311c-3.21425,-2.73252 -9.53769,-4.31445 -18.79479,-4.70312zM85.74608,161.99339c-1.70067,0.74334 -3.4705,1.31717 -5.2838,1.71315c-1.63586,0.2778 -3.30179,0.33298 -4.95245,0.16403c2.49502,2.7618 5.99645,4.40339 9.71529,4.55484c4.20539,0.21181 8.28821,-1.45208 11.14761,-4.54303c-0.58229,0.05554 -1.16663,0.08397 -1.75317,0.08464c-1.03277,-0.00017 -2.06369,-0.08731 -3.08183,-0.26048c-1.97495,-0.40852 -3.91226,-0.98156 -5.79164,-1.71315z"></path>
      </g>
      <path d="" fill="none" stroke="none" stroke-width="1" stroke-linejoin="miter"></path>
      <path d="" fill="none" stroke="none" stroke-width="1" stroke-linejoin="miter"></path>
      <path d="" fill="none" stroke="none" stroke-width="1" stroke-linejoin="miter"></path>
    </g>
  </g>
</svg>